<?xml version="1.0" encoding="UTF-8"?>
<svg width="22px" height="22px" viewBox="0 0 22 22" version="1.1" xmlns="http://www.w3.org/2000/svg" xmlns:xlink="http://www.w3.org/1999/xlink">
    <!-- Generator: sketchtool 57.1 (101010) - https://sketch.com -->
    <title>1088FA6F-A7CB-43CD-A6AD-B8CBE49BBE77</title>
    <desc>Created with sketchtool.</desc>
    <g id="Page-1" stroke="none" stroke-width="1" fill="none" fill-rule="evenodd">
        <g id="Works-Copy-86" transform="translate(-428.000000, -518.000000)" fill="#FFFFFF" fill-rule="nonzero">
            <g id="Group-4" transform="translate(405.000000, 505.000000)">
                <path d="M44.804878,33.8780488 L39.4585366,28.5317073 C40.8926829,26.8829268 41.7609756,24.7317073 41.7609756,22.3804878 C41.7609756,17.204878 37.5512195,13 32.3804878,13 C27.204878,13 23,17.2097561 23,22.3804878 C23,27.5512195 27.2097561,31.7609756 32.3804878,31.7609756 C34.7317073,31.7609756 36.8829268,30.8926829 38.5317073,29.4585366 L43.8780488,34.804878 C44.004878,34.9317073 44.1756098,35 44.3414634,35 C44.5073171,35 44.6780488,34.9365854 44.804878,34.804878 C45.0585366,34.5512195 45.0585366,34.1317073 44.804878,33.8780488 Z M24.3121951,22.3804878 C24.3121951,17.9317073 27.9317073,14.3170732 32.3756098,14.3170732 C36.8243902,14.3170732 40.4390244,17.9365854 40.4390244,22.3804878 C40.4390244,26.8243902 36.8243902,30.4487805 32.3756098,30.4487805 C27.9317073,30.4487805 24.3121951,26.8292683 24.3121951,22.3804878 Z" id="Shape"></path>
            </g>
        </g>
    </g>
</svg>